# xmcd CD database file
#
# Track frame offsets:
#	150
#	29994
#	46405
#	60260
#	98685
#	120467
#	143402
#	159425
#	177409
#	201550
#	225232
#	245825
#	266552
#
# Disc length: 3818 seconds
#
# Revision: 0
# Processed by: cddbd v1.4PL0 Copyright (c) Steve Scherf et al.
# Submitted via: CDex 1.50
#
DISCID=b00ee80d
DTITLE=Various Artist - Best of the Blues, Volume I
DYEAR=1997
DGENRE=Blues
TTITLE0=Jorma Kaukonen/Killing Time in the Crystal City
TTITLE1=Savoy Brown/Meet Me in the Bottom
TTITLE2=Johnny Winter/We Go Back a Ways
TTITLE3=Jorma Kaukonen/Rock Me Baby
TTITLE4=Kingfish featuring Johne Lee Hooker and Mike Bloomfield/Put Your Hand on Me
TTITLE5=Jorma Kaukonen and Michael Falzarano/Dark Train
TTITLE6=Michael Falzarano and Memphis Pilgrims featuring Jorma Kaukonen and Pete Sears/Kept On Keepin' On
TTITLE7=Jorma Kaukonen/Walkin' Blues
TTITLE8=Hot Tuna featuring Bob Weir/Good Morning Little Schoolgirl
TTITLE9=Danny Kalb/Long Distance Call
TTITLE10=Jorma Kaukonen/Christmas Blues
TTITLE11=Jorma Kaukonen/Re-enlistment Blues (bonus track)
TTITLE12=Jorma Kaukonen/Follow the Drinking Gourd
EXTD=YEAR: 1997
EXTT0=
EXTT1=
EXTT2=
EXTT3=
EXTT4=
EXTT5=
EXTT6=
EXTT7=
EXTT8=
EXTT9=
EXTT10=
EXTT11=
EXTT12=
PLAYORDER=
